HIERARCHY
ROOT pelvis
{
  OFFSET 0 100 0
  CHANNELS 6 Xposition Yposition Zposition Zrotation Xrotation Yrotation
  JOINT pelvis_right_femur
  {
    OFFSET -10.78128 -3.44521 -0.5502486
    CHANNELS 3 Zrotation Xrotation Yrotation
    JOINT right_femur_tibia
    {
      OFFSET -0.8047443 -44.0398 -0.1307829
      CHANNELS 3 Zrotation Xrotation Yrotation
      JOINT right_tibia_foot
      {
        OFFSET 3.006224 -47.83518 -5
        CHANNELS 3 Zrotation Xrotation Yrotation
        End Site
        {
          OFFSET 0 -5 15
        }
      }
    }
  }
  JOINT pelvis_left_femur
  {
    OFFSET 10.78128 -3.44521 -0.5502486
    CHANNELS 3 Zrotation Xrotation Yrotation
    JOINT left_femur_tibia
    {
      OFFSET 0.8047443 -44.0398 -0.1307829
      CHANNELS 3 Zrotation Xrotation Yrotation
      JOINT left_tibia_foot
      {
        OFFSET -4.370144 -48.10324 -4.275266
        CHANNELS 3 Zrotation Xrotation Yrotation
        End Site
        {
          OFFSET 0 -5 15
        }
      }
    }
  }
  JOINT pelvis_spine1
  {
    OFFSET 0 6.468898 -3.129235
    CHANNELS 3 Zrotation Xrotation Yrotation
    JOINT spine1
    {
      OFFSET 0 23.15396 4.99043
      CHANNELS 3 Zrotation Xrotation Yrotation
      JOINT spine2
      {
        OFFSET 0 20.79997 -5.064912
        CHANNELS 3 Zrotation Xrotation Yrotation
        JOINT neck
        {
          OFFSET 0 14.38658 9.616178
          CHANNELS 3 Zrotation Xrotation Yrotation
          End Site
          {
            OFFSET 0 20 0
          }
        }
      }
      JOINT right_manubrium
      {
        OFFSET -5.722621 16.35077 3.967754
        CHANNELS 3 Zrotation Xrotation Yrotation
        JOINT right_clavicle
        {
          OFFSET -13.16364 1.694482 -4.693211
          CHANNELS 3 Zrotation Xrotation Yrotation
          JOINT right_humerus
          {
            OFFSET -28.5034 -0.3100689 -2.792744
            CHANNELS 3 Zrotation Xrotation Yrotation
            JOINT right_radius
            {
              OFFSET -25.15693 0.02248979 -1.271978
              CHANNELS 3 Zrotation Xrotation Yrotation
              End Site
              {
                OFFSET -15 0 0
              }
            }
          }
        }
      }
      JOINT left_manubrium
      {
        OFFSET 5.722621 16.35077 3.967754
        CHANNELS 3 Zrotation Xrotation Yrotation
        JOINT left_clavicle
        {
          OFFSET 13.16364 1.694482 -4.693211
          CHANNELS 3 Zrotation Xrotation Yrotation
          JOINT left_humerus
          {
            OFFSET 29.39168 -1.063119 -2.237045
            CHANNELS 3 Zrotation Xrotation Yrotation
            JOINT left_radius
            {
              OFFSET 24.59957 -0.9528479 0.9047498
              CHANNELS 3 Zrotation Xrotation Yrotation
              End Site
              {
                OFFSET 15 -0 -0
              }
            }
          }
        }
      }
    }
  }
}
MOTION
Frames: 21
Frame Time: 0.0416666666667
0 103.5113 0 0.4091173 -2.266503 -0.01154245 4.126769 -17.00808 6.761316 -0 40.405 -0 -9.998808 -11.62265 -0.9940549 -7.135775 8.831809 -23.52723 -0 6.176754 -0 9.663176 -18.65933 28.63913 -3.314968 -2.56611 4.008378 2.08868 9.896588 -6.520806 1.508257 23.37855 6.831035 3.948804 -25.1868 9.195093 5.439117 -20.67774 11.98266 85.71418 32.73411 -16.90074 -0 0 15.68209 -7.466305 5.190627 4.686951 5.995648 -19.90594 -2.443754 -96.72457 26.66396 24.32731 0 0 -12.1212 9.912999 20.26081 1.898121
0.365154 104.147 1.14612 0.4513587 -2.31339 -0.0002520875 3.960329 -17.30175 6.537122 -0 40.15318 -0 -9.77756 -11.02048 -1.125099 -7.104679 9.02454 -23.0951 -0 6.251822 -0 9.321538 -18.72617 28.12911 -3.349404 -2.474284 3.934152 2.077322 9.932525 -6.613242 1.450292 23.32216 6.906983 3.946549 -24.99553 9.138009 5.439153 -20.49839 11.96871 85.87064 32.78578 -17.1418 -0 0 15.37225 -7.969803 5.568187 4.934203 5.987038 -20.02651 -2.553032 -96.20494 26.66849 23.78401 0 0 -12.70437 9.536219 19.92128 2.367858
0.6649976 104.5495 2.738589 0.2178886 -1.558039 -0.003462013 4.375218 -20.07377 5.842879 -0 34.90958 -0 -9.43931 -10.5128 -1.082623 -6.678628 10.51724 -22.11891 -0 5.550229 -0 8.497529 -19.71759 26.78002 -3.050382 -2.49767 3.765835 2.245301 9.713727 -6.965293 1.411202 22.91922 6.970639 3.93422 -25.11297 9.108261 4.968324 -20.1285 11.76702 86.4259 32.226 -18.17906 -0 0 14.75243 -8.410595 5.905652 4.889534 6.498721 -20.61679 -2.555194 -95.01659 26.14413 22.19019 0 0 -14.76913 9.95229 19.50128 1.781756
0.8986169 104.7361 4.815785 2.22323e-06 -0.913465 0.007049546 4.699704 -22.6035 5.084614 -0 30.05015 -0 -9.125554 -9.657363 -1.043071 -6.300313 11.92576 -21.02196 -0 5.475088 -0 7.517745 -20.5144 25.25781 -2.744107 -2.494806 3.591776 2.377809 9.548149 -7.29358 1.368729 22.53983 7.038457 3.931489 -25.16517 9.050194 4.497232 -19.70531 11.58068 87.02884 31.61143 -19.20154 -0 0 14.01541 -9.027378 6.313279 4.926505 6.957055 -21.20515 -2.606306 -93.78997 25.51754 20.56595 0 0 -16.76163 10.33293 19.00918 1.248096
1.067031 104.7522 7.390028 -0.2479111 -0.2487704 0.02333083 5.068984 -24.9331 4.391129 -0 25.38904 -0 -8.873637 -8.759103 -0.9679584 -5.947009 13.19874 -19.95063 -0 6.01368 -0 6.41495 -21.13082 23.6471 -2.392496 -2.508435 3.450748 2.503923 9.389502 -7.597077 1.336627 22.15427 7.093441 3.939446 -25.27577 8.991681 4.046862 -19.28918 11.40749 87.60338 30.99558 -20.18202 -0 0 13.31307 -9.580798 6.691705 4.928042 7.370068 -21.74791 -2.635254 -92.73843 24.87468 19.1635 0 0 -18.57095 10.69645 18.54438 0.7556808
1.170803 104.6479 10.49601 -0.5128565 0.3754168 0.04371976 5.449944 -26.99856 3.705582 -0 21.01463 -0 -8.681499 -7.655838 -0.866006 -5.623624 14.31746 -18.81578 -0 7.379236 -0 5.154195 -21.50064 21.88145 -1.996807 -2.523181 3.336061 2.609413 9.270238 -7.874888 1.30883 21.77168 7.139259 3.958853 -25.39872 8.915054 3.604363 -18.85701 11.25371 88.19215 30.33834 -21.13971 -0 0 12.578 -10.18112 7.08945 4.939322 7.723114 -22.26764 -2.680282 -91.78243 24.16859 17.90479 0 0 -20.2265 11.0426 18.06246 0.3039744
1.213123 104.4927 14.16338 -0.7907299 0.9358965 0.06524424 5.84944 -28.67747 3.057999 -0 17.10048 -0 -8.555941 -6.346723 -0.7443579 -5.334699 15.19173 -17.61951 -0 9.75404 -0 3.738284 -21.54305 19.97169 -1.558474 -2.535942 3.261416 2.690041 9.206542 -8.120986 1.282484 21.39743 7.175129 3.990155 -25.53092 8.81487 3.192837 -18.42003 11.13103 88.78179 29.67107 -22.05654 -0 0 11.82989 -10.82788 7.522102 4.967348 7.984519 -22.74782 -2.748148 -90.95662 23.43488 16.86157 0 0 -21.67137 11.31733 17.56212 -0.03177449
1.199463 104.3735 18.417 -1.07042 1.384758 0.08334825 6.262571 -29.82864 2.460526 -0 13.82407 -0 -8.504731 -4.809427 -0.6140741 -5.082643 15.72362 -16.34365 -0 13.33553 -0 2.189517 -21.16715 17.94083 -1.083279 -2.538386 3.238241 2.738172 9.2256 -8.32873 1.253116 21.04347 7.199268 4.032373 -25.6512 8.679778 2.829292 -17.98844 11.05373 89.37014 29.01082 -22.91642 -0 0 11.07266 -11.54961 8.014561 5.032253 8.121634 -23.18237 -2.858106 -90.2682 22.69009 16.07393 0 0 -22.86106 11.47901 17.03466 -0.194633
1.138031 104.3946 23.26596 -1.335976 1.664215 0.09009683 6.683391 -30.28178 1.935579 -0 11.37755 -0 -8.535674 -3.064262 -0.4898945 -4.864604 15.7874 -14.98361 -0 18.28107 -0 0.5662369 -20.28252 15.85502 -0.5837134 -2.52062 3.28137 2.746702 9.357605 -8.489593 1.215541 20.72692 7.207915 4.082606 -25.7336 8.497353 2.536129 -17.58371 11.03933 89.94509 28.38674 -23.69142 -0 0 10.326 -12.3662 8.589233 5.155583 8.098619 -23.56263 -3.029573 -89.73191 21.96098 15.59426 0 0 -23.74114 11.48067 16.47727 -0.121913
1.039265 104.6726 28.69092 -1.564953 1.70553 0.07254749 7.098442 -29.85372 1.506037 -0 9.922989 -0 -8.651876 -1.181569 -0.3911876 -4.668218 15.23798 -13.54385 -0 24.65012 -0 -1.034337 -18.81985 13.82479 -0.08137835 -2.470131 3.406733 2.709289 9.634676 -8.594233 1.163589 20.47035 7.195207 4.135007 -25.74218 8.253533 2.335674 -17.23905 11.10721 90.48571 27.83345 -24.34213 -0 0 9.62338 -13.29658 9.266258 5.364063 7.883374 -23.88266 -3.282834 -89.3585 21.27482 15.46769 0 0 -24.26406 11.27964 15.88942 0.2398759
0.9143592 105.323 34.6282 -1.729742 1.439763 0.01190382 7.484732 -28.37477 1.193494 -0 9.533631 -0 -8.84498 0.6922546 -0.3419305 -4.466938 13.9222 -12.04343 -0 32.31065 -0 -2.481953 -16.76197 12.00254 0.3914095 -2.373145 3.629936 2.622264 10.08338 -8.633536 1.090788 20.29932 7.153189 4.18001 -25.63313 7.935177 2.24652 -17.00202 11.27557 90.95598 27.39078 -24.81414 -0 0 9.020841 -14.35271 10.05799 5.688099 7.456925 -24.13963 -3.633171 -89.15437 20.65839 15.72456 0 0 -24.40167 10.84319 15.27359 0.9252964
0.772699 106.4369 40.95559 -1.801943 0.8158924 -0.1156006 7.808774 -25.73119 1.013509 -0 10.11676 -0 -9.087039 2.318839 -0.3693042 -4.217347 11.70325 -10.51625 -0 40.83254 -0 -3.634926 -14.17869 10.56347 0.7926089 -2.217478 3.963381 2.486537 10.71344 -8.600147 0.991889 20.23686 7.072374 4.204078 -25.35971 7.534177 2.276339 -16.93406 11.55587 91.29979 27.09735 -25.03595 -0 0 8.603868 -15.53507 10.96213 6.159226 6.826369 -24.33415 -4.083035 -89.11864 20.13327 16.36807 0 0 -24.16129 10.15751 14.63538 1.935496
0.6193028 108.0467 47.48853 -1.761172 -0.1725554 -0.3356122 8.030695 -21.91571 0.9723709 -0 11.3496 -0 -9.32503 3.373125 -0.498514 -3.8613 8.496466 -9.007409 -0 49.4063 -0 -4.374609 -11.25158 9.67268 1.076248 -1.997832 4.412685 2.309061 11.50285 -8.489766 0.8656487 20.29458 6.943007 4.190632 -24.8836 7.053719 2.413453 -17.10555 11.94494 91.4376 26.97944 -24.91828 -0 0 8.492208 -16.82611 11.95335 6.803991 6.037267 -24.46745 -4.611985 -89.24352 19.7122 17.368 0 0 -23.59395 9.235441 13.9852 3.226735
0.4547648 110.0893 53.99827 -1.60671 -1.460378 -0.6714102 8.113652 -17.06701 1.065083 -0 12.68004 -0 -9.484903 3.490687 -0.740942 -3.335117 4.310512 -7.564988 -0 56.85799 -0 -4.64213 -8.268523 9.445908 1.204226 -1.722679 4.972951 2.1024 12.38512 -8.301305 0.7184435 20.46225 6.756978 4.122491 -24.19159 6.514939 2.619788 -17.58423 12.41626 91.27072 27.0349 -24.35807 -0 0 8.835552 -18.18402 12.97677 7.63431 5.178267 -24.5345 -5.168474 -89.51958 19.39762 18.66727 0 0 -22.78298 8.119264 13.34171 4.708753
0.2802997 112.3855 60.25897 -1.366723 -2.898214 -1.140695 8.035679 -11.47144 1.27384 -0 13.44643 -0 -9.490832 2.366785 -1.075752 -2.585672 -0.7196178 -6.232043 -0 61.83091 -0 -4.462495 -5.573249 9.915145 1.161913 -1.419848 5.625556 1.881342 13.24737 -8.035129 0.5672458 20.70156 6.510028 3.985735 -23.31288 5.960337 2.830281 -18.41699 12.91454 90.69922 27.21731 -23.25156 -0 0 9.791855 -19.53979 13.94788 8.636342 4.369452 -24.51394 -5.669701 -89.94715 19.18385 20.20577 0 0 -21.80483 6.874798 12.73564 6.259989
0.1070908 114.658 66.11338 -1.097388 -4.271845 -1.754059 7.798154 -5.5108 1.566432 -0 13.12036 -0 -9.295539 -0.1106103 -1.434794 -1.591059 -6.322599 -5.045765 -0 63.14112 -0 -3.945161 -3.475351 11.00901 0.9703327 -1.135885 6.335541 1.657086 13.94775 -7.689855 0.4395885 20.95092 6.203903 3.774457 -22.32688 5.449664 2.963308 -19.60726 13.35854 89.65722 27.43068 -21.52145 -0 0 11.48197 -20.80139 14.76315 9.763494 3.731216 -24.36005 -6.015762 -90.54879 19.06212 21.9509 0 0 -20.67239 5.577487 12.21107 7.758324
-0.03680866 116.5994 71.52697 -0.8675102 -5.358728 -2.512023 7.425024 0.4267426 1.895936 -0 11.58165 -0 -8.905475 -3.746227 -1.709075 -0.3829331 -12.10934 -4.04807 -0 60.19557 -0 -3.260026 -2.155257 12.55582 0.6854371 -0.9251955 7.049357 1.431869 14.35146 -7.25991 0.3689359 21.1453 5.84824 3.495713 -21.35114 5.046871 2.94202 -21.09344 13.65531 88.15871 27.54604 -19.15669 -0 0 13.92452 -21.86879 15.3199 10.94035 3.342995 -24.00486 -6.118496 -91.36918 19.02434 23.90723 0 0 -19.29495 4.298599 11.82105 9.112018
-0.110727 117.9661 76.59866 -0.7332211 -6.004663 -3.397376 6.95085 6.023137 2.203486 -0 9.267725 -0 -8.386546 -8.005299 -1.785805 0.9335429 -17.61208 -3.303041 -0 53.27532 -0 -2.59733 -1.613431 14.31414 0.3799819 -0.8302432 7.694057 1.197613 14.37183 -6.736595 0.3865436 21.24554 5.462015 3.173472 -20.50748 4.802645 2.719002 -22.73555 13.72359 86.33256 27.44068 -16.25075 -0 0 16.97128 -22.65994 15.53777 12.07957 3.213238 -23.37716 -5.935231 -92.4482 19.06003 26.07777 0 0 -17.49563 3.104119 11.61741 10.26672
-0.07805559 118.6555 81.52355 -0.7159312 -6.18546 -4.366469 6.4032 11.04806 2.423781 -0 7.083907 -0 -7.850881 -12.09593 -1.599869 2.171818 -22.33344 -2.905775 -0 43.53207 -0 -2.122763 -1.69343 16.02613 0.1146337 -0.8611919 8.18206 0.9397348 13.99848 -6.11401 0.5128166 21.26225 5.074498 2.849321 -19.87873 4.740859 2.293703 -24.3192 13.51929 84.41948 27.0448 -13.01568 -0 0 20.27653 -23.14311 15.37338 13.10549 3.280847 -22.43654 -5.490781 -93.76682 19.14635 28.38115 0 0 -15.10192 2.071262 11.63637 11.17741
0.07453624 118.7301 86.53326 -0.7955738 -6.020478 -5.348934 5.790586 15.31737 2.492698 -0 6.100215 -0 -7.430283 -15.14416 -1.167615 3.087569 -25.80671 -2.960425 -0 32.70064 -0 -1.936523 -2.163448 17.47497 -0.08679325 -0.9862028 8.426624 0.6440982 13.30274 -5.399224 0.7498685 21.25739 4.725996 2.577639 -19.47905 4.854616 1.718153 -25.58575 13.05558 82.71841 26.37413 -9.758607 -0 0 23.3314 -23.3646 14.82853 13.97364 3.449349 -21.20955 -4.875757 -95.19097 19.24299 30.57778 0 0 -12.07843 1.307656 11.88104 11.76879
0.3284334 118.3895 91.84147 -0.9203237 -5.727709 -6.260014 5.103677 18.64032 2.359515 -0 7.178117 -0 -7.235562 -16.40918 -0.5788916 3.45099 -27.6742 -3.516907 -0 22.6542 -0 -2.044653 -2.80842 18.5245 -0.2447243 -1.139289 8.367748 0.3043473 12.42267 -4.624044 1.075369 21.31823 4.467165 2.414328 -19.25594 5.110879 1.092419 -26.29194 12.4109 81.49833 25.53522 -6.828212 -0 0 25.5739 -23.45402 13.9579 14.67729 3.632249 -19.8092 -4.222693 -96.45934 19.30523 32.27749 0 0 -8.63296 0.9442966 12.30342 11.93049
